<svg width="25" height="25" viewBox="0 0 25 25" fill="none" xmlns="http://www.w3.org/2000/svg">
<path d="M3.09766 18.3729C3.09766 19.4338 3.51908 20.4512 4.26923 21.2014C5.01937 21.9515 6.03679 22.3729 7.09766 22.3729H17.0977C18.1585 22.3729 19.1759 21.9515 19.9261 21.2014C20.6762 20.4512 21.0977 19.4338 21.0977 18.3729V10.8729H3.09766V18.3729ZM16.0977 13.3729C16.2954 13.3729 16.4888 13.4316 16.6532 13.5415C16.8177 13.6513 16.9458 13.8075 17.0215 13.9902C17.0972 14.173 17.117 14.374 17.0784 14.568C17.0399 14.762 16.9446 14.9402 16.8048 15.08C16.6649 15.2199 16.4867 15.3151 16.2927 15.3537C16.0988 15.3923 15.8977 15.3725 15.715 15.2968C15.5322 15.2211 15.3761 15.0929 15.2662 14.9285C15.1563 14.764 15.0977 14.5707 15.0977 14.3729C15.0977 14.1077 15.203 13.8534 15.3905 13.6658C15.5781 13.4783 15.8324 13.3729 16.0977 13.3729ZM16.0977 17.3729C16.2954 17.3729 16.4888 17.4316 16.6532 17.5415C16.8177 17.6513 16.9458 17.8075 17.0215 17.9902C17.0972 18.173 17.117 18.374 17.0784 18.568C17.0399 18.762 16.9446 18.9402 16.8048 19.08C16.6649 19.2199 16.4867 19.3151 16.2927 19.3537C16.0988 19.3923 15.8977 19.3725 15.715 19.2968C15.5322 19.2211 15.3761 19.0929 15.2662 18.9285C15.1563 18.764 15.0977 18.5707 15.0977 18.3729C15.0977 18.1077 15.203 17.8534 15.3905 17.6658C15.5781 17.4783 15.8324 17.3729 16.0977 17.3729ZM12.0977 13.3729C12.2954 13.3729 12.4888 13.4316 12.6532 13.5415C12.8177 13.6513 12.9458 13.8075 13.0215 13.9902C13.0972 14.173 13.117 14.374 13.0784 14.568C13.0399 14.762 12.9446 14.9402 12.8048 15.08C12.6649 15.2199 12.4867 15.3151 12.2927 15.3537C12.0988 15.3923 11.8977 15.3725 11.715 15.2968C11.5322 15.2211 11.3761 15.0929 11.2662 14.9285C11.1563 14.764 11.0977 14.5707 11.0977 14.3729C11.0977 14.1077 11.203 13.8534 11.3905 13.6658C11.5781 13.4783 11.8324 13.3729 12.0977 13.3729ZM12.0977 17.3729C12.2954 17.3729 12.4888 17.4316 12.6532 17.5415C12.8177 17.6513 12.9458 17.8075 13.0215 17.9902C13.0972 18.173 13.117 18.374 13.0784 18.568C13.0399 18.762 12.9446 18.9402 12.8048 19.08C12.6649 19.2199 12.4867 19.3151 12.2927 19.3537C12.0988 19.3923 11.8977 19.3725 11.715 19.2968C11.5322 19.2211 11.3761 19.0929 11.2662 18.9285C11.1563 18.764 11.0977 18.5707 11.0977 18.3729C11.0977 18.1077 11.203 17.8534 11.3905 17.6658C11.5781 17.4783 11.8324 17.3729 12.0977 17.3729ZM8.09766 13.3729C8.29544 13.3729 8.48878 13.4316 8.65323 13.5415C8.81768 13.6513 8.94585 13.8075 9.02154 13.9902C9.09722 14.173 9.11703 14.374 9.07844 14.568C9.03986 14.762 8.94462 14.9402 8.80476 15.08C8.66491 15.2199 8.48673 15.3151 8.29275 15.3537C8.09877 15.3923 7.8977 15.3725 7.71497 15.2968C7.53225 15.2211 7.37607 15.0929 7.26619 14.9285C7.15631 14.764 7.09766 14.5707 7.09766 14.3729C7.09766 14.1077 7.20301 13.8534 7.39055 13.6658C7.57809 13.4783 7.83244 13.3729 8.09766 13.3729ZM8.09766 17.3729C8.29544 17.3729 8.48878 17.4316 8.65323 17.5415C8.81768 17.6513 8.94585 17.8075 9.02154 17.9902C9.09722 18.173 9.11703 18.374 9.07844 18.568C9.03986 18.762 8.94462 18.9402 8.80476 19.08C8.66491 19.2199 8.48673 19.3151 8.29275 19.3537C8.09877 19.3923 7.8977 19.3725 7.71497 19.2968C7.53225 19.2211 7.37607 19.0929 7.26619 18.9285C7.15631 18.764 7.09766 18.5707 7.09766 18.3729C7.09766 18.1077 7.20301 17.8534 7.39055 17.6658C7.57809 17.4783 7.83244 17.3729 8.09766 17.3729Z" fill="#0085FF" fill-opacity="0.5"/>
<path d="M17.8477 5.20292V3.62292C17.8477 3.42401 17.7686 3.23325 17.628 3.09259C17.4873 2.95194 17.2966 2.87292 17.0977 2.87292C16.8987 2.87292 16.708 2.95194 16.5673 3.09259C16.4267 3.23325 16.3477 3.42401 16.3477 3.62292V5.12292H8.84766V3.62292C8.84766 3.42401 8.76864 3.23325 8.62799 3.09259C8.48733 2.95194 8.29657 2.87292 8.09766 2.87292C7.89874 2.87292 7.70798 2.95194 7.56733 3.09259C7.42667 3.23325 7.34766 3.42401 7.34766 3.62292V5.12292H7.09766C6.03679 5.12292 5.01937 5.54435 4.26923 6.2945C3.51908 7.04464 3.09766 8.06206 3.09766 9.12292V9.37292H21.0977V9.12292C21.0956 8.19375 20.77 7.29429 20.177 6.57898C19.5839 5.86367 18.7604 5.37714 17.8477 5.20292Z" fill="#0085FF" fill-opacity="0.5"/>
</svg>
