<svg width="30" height="30" viewBox="0 0 30 30" fill="none" xmlns="http://www.w3.org/2000/svg">
<rect x="0.5" y="0.5" width="29" height="29" rx="14.5" stroke="#B3B3B3"/>
<path d="M13.2362 5.96401C13.4047 6.13276 13.4994 6.36151 13.4994 6.60001C13.4994 6.83851 13.4047 7.06726 13.2362 7.23601L11.7722 8.70001H16.2002C17.6836 8.70001 19.1336 9.13988 20.367 9.96399C21.6003 10.7881 22.5616 11.9594 23.1293 13.3299C23.6969 14.7003 23.8455 16.2083 23.5561 17.6632C23.2667 19.118 22.5524 20.4544 21.5035 21.5033C20.4546 22.5522 19.1182 23.2665 17.6634 23.5559C16.2085 23.8453 14.7005 23.6968 13.3301 23.1291C11.9596 22.5615 10.7883 21.6002 9.96417 20.3668C9.14006 19.1334 8.7002 17.6834 8.7002 16.2C8.7002 15.9613 8.79502 15.7324 8.9638 15.5636C9.13258 15.3948 9.3615 15.3 9.6002 15.3C9.83889 15.3 10.0678 15.3948 10.2366 15.5636C10.4054 15.7324 10.5002 15.9613 10.5002 16.2C10.5002 17.3274 10.8345 18.4294 11.4608 19.3668C12.0871 20.3041 12.9774 21.0347 14.0189 21.4661C15.0604 21.8975 16.2065 22.0104 17.3122 21.7905C18.4179 21.5706 19.4335 21.0277 20.2307 20.2305C21.0279 19.4334 21.5707 18.4177 21.7907 17.312C22.0106 16.2063 21.8977 15.0603 21.4663 14.0187C21.0349 12.9772 20.3043 12.087 19.3669 11.4606C18.4296 10.8343 17.3275 10.5 16.2002 10.5H11.7722L13.2362 11.964C13.3952 12.1346 13.4817 12.3603 13.4776 12.5934C13.4735 12.8266 13.379 13.0491 13.2141 13.214C13.0492 13.3789 12.8268 13.4733 12.5936 13.4774C12.3605 13.4815 12.1348 13.395 11.9642 13.236L8.9642 10.236C8.79566 10.0673 8.70099 9.83851 8.70099 9.60001C8.70099 9.36151 8.79566 9.13276 8.9642 8.96401L11.9642 5.96401C12.1329 5.79547 12.3617 5.70081 12.6002 5.70081C12.8387 5.70081 13.0674 5.79547 13.2362 5.96401Z" fill="#303441"/>
</svg>
